<?xml version="1.0" encoding="UTF-8" standalone="no"?>
<svg
   xmlns:dc="http://purl.org/dc/elements/1.1/"
   xmlns:cc="http://creativecommons.org/ns#"
   xmlns:rdf="http://www.w3.org/1999/02/22-rdf-syntax-ns#"
   xmlns:svg="http://www.w3.org/2000/svg"
   xmlns="http://www.w3.org/2000/svg"
   xmlns:sodipodi="http://sodipodi.sourceforge.net/DTD/sodipodi-0.dtd"
   xmlns:inkscape="http://www.inkscape.org/namespaces/inkscape"
   data-name="Layer 1"
   viewBox="0 0 340 256"
   x="0px"
   y="0px"
   version="1.1"
   sodipodi:docname="too-long.svg"
   width="340"
   height="256"
   inkscape:version="0.92.4 (unknown)">
  <path
     d="M 49.447563,24.019529 C 35.575253,42.536166 25.274889,61.186207 18.592094,79.972654 l -0.0039,0.0078 -0.0039,0.0098 C 6.2103434,115.50093 7.2437832,154.31165 21.490532,189.11328 29.09659,207.72648 38.427129,224.03277 49.496391,238 l 4.703125,-3.72656 C 43.522453,220.80108 34.465698,205.00124 27.045219,186.84179 l -0.002,-0.002 C 13.352824,153.39715 12.358096,116.10758 24.244438,81.982419 l 0.002,-0.0059 c 0.0014,-0.0039 0.0025,-0.0078 0.0039,-0.01172 C 30.701037,63.83701 40.684932,45.719555 54.248344,27.615232 Z"
     inkscape:connector-curvature="0"
     style="fill:#ffffff;fill-opacity:1" />
  <path
     d="m 167.80469,18.789062 -5.77735,1.621094 c 2.67873,9.661071 5.44812,21.871065 7.67188,33.767578 1.95324,10.64494 3.48107,21.087708 4.10742,29.31836 l 5.98438,-0.421875 c -6.5e-4,-0.0099 -0.003,-0.0233 -0.004,-0.0332 h 0.002 c -0.0106,-0.139077 -0.0417,-0.320804 -0.0527,-0.460938 -0.60101,-8.783071 -2.24661,-19.908827 -4.41016,-31.220703 -10e-4,-0.0053 -0.003,-0.01032 -0.004,-0.01563 -2.14804,-11.432882 -4.80142,-22.988498 -7.51368,-32.537109 -0.002,-0.0054 -0.002,-0.01223 -0.004,-0.01758 z m -71.277346,12.230469 -5.365235,2.685547 c 8.425352,17.235011 18.263321,43.751117 21.273441,58.878906 l 5.88867,-1.15625 c -9e-4,-0.0046 -0.003,-0.011 -0.004,-0.01563 -2.4e-4,-0.0012 -0.002,-0.0027 -0.002,-0.0039 C 115.0992,74.7825 105.28108,48.150759 96.615234,31.207031 c -0.02032,-0.04163 -0.0422,-0.09518 -0.0625,-0.136719 h -0.002 c -0.0077,-0.0151 -0.0157,-0.0357 -0.02344,-0.05078 z"
     inkscape:connector-curvature="0"
     style="fill:#ffffff;fill-opacity:1" />
  <path
     d="m 279.69336,102.45898 c 0,0 -29.97198,0.43991 -62.75586,13.02149 -30.0934,11.54122 -79.98705,38.271 -120.886719,97.36914 l 4.933599,3.41406 c 40.08258,-57.91749 88.82748,-83.95464 118.10156,-95.18164 31.68642,-12.1604 60.69922,-12.62305 60.69922,-12.62305 z"
     inkscape:connector-curvature="0"
     style="fill:#ffffff;fill-opacity:1" />
  <path
     d="m 289.80078,24.019535 c 13.87231,18.516637 24.17268,37.166678 30.85547,55.953125 l 0.004,0.0078 0.004,0.0098 c 12.37395,35.51068 11.34051,74.32139 -2.90624,109.12303 -7.60606,18.61319 -16.93659,34.91948 -28.00586,48.88671 l -4.70312,-3.72656 c 10.67706,-13.47236 19.73382,-29.2722 27.1543,-47.43165 l 0.002,-0.002 c 13.69039,-33.44264 14.68512,-70.7322 2.79878,-104.857365 l -0.002,-0.0059 c -0.001,-0.0039 -0.002,-0.0078 -0.004,-0.01172 C 308.54731,63.837016 298.56341,45.719561 285,27.615238 Z"
     inkscape:connector-curvature="0"
     style="fill:#ffffff;fill-opacity:1" />
</svg>
