<?xml version="1.0" encoding="UTF-8" standalone="no"?>
<!DOCTYPE svg PUBLIC "-//W3C//DTD SVG 1.1//EN" "http://www.w3.org/Graphics/SVG/1.1/DTD/svg11.dtd">
<svg width="100%" height="100%" viewBox="0 0 86 86" version="1.1" xmlns="http://www.w3.org/2000/svg" xmlns:xlink="http://www.w3.org/1999/xlink" xml:space="preserve" xmlns:serif="http://www.serif.com/" style="fill-rule:evenodd;clip-rule:evenodd;stroke-linejoin:round;stroke-miterlimit:2;">
    <path d="M85.7,84.277C85.7,85.063 85.063,85.7 84.277,85.7L1.723,85.7C0.937,85.7 0.3,85.063 0.3,84.277L0.3,1.723C0.3,0.937 0.937,0.3 1.723,0.3L84.276,0.3C85.062,0.3 85.699,0.937 85.699,1.723L85.699,84.277L85.7,84.277Z" style="fill:url(#_Linear1);fill-rule:nonzero;"/>
    <g id="Complete-icon" serif:id="Complete icon" transform="matrix(1.66576,0,0,1.66576,-9.3044,-10.3044)">
        <g id="Board">
            <path d="M48,12L16,12C13.8,12 12,13.8 12,16L12,48C12,50.2 13.8,52 16,52L48,52C50.2,52 52,50.2 52,48L52,16C52,13.8 50.2,12 48,12Z" style="fill:rgb(231,173,49);fill-rule:nonzero;"/>
        </g>
        <g id="Paper">
            <rect x="16" y="18" width="32" height="32" style="fill:rgb(35,31,32);fill-opacity:0.21;"/>
            <rect x="16" y="16" width="32" height="32" style="fill:white;"/>
        </g>
        <g id="QR-Code" serif:id="QR Code" transform="matrix(0.158796,0,0,0.158797,13.6136,13.5885)">
            <g opacity="0.85">
                <g transform="matrix(1,0,0,1,704.571,-666.52)">
                    <path d="M-672.572,698.52L-672.572,754.52L-616.572,754.52L-616.572,698.52L-672.572,698.52ZM-664.572,706.52L-624.572,706.52L-624.572,746.52L-664.572,746.52L-664.572,706.52Z" style="fill-rule:nonzero;"/>
                </g>
                <g transform="matrix(1,0,0,1,704.571,-666.52)">
                    <path d="M-672.572,762.52L-672.572,770.52L-664.572,770.52L-664.572,778.52L-656.572,778.52L-656.572,786.52L-664.572,786.52L-664.572,802.52L-648.572,802.52L-648.572,786.52L-640.572,786.52L-640.572,778.52L-648.572,778.52L-648.572,770.52L-656.572,770.52L-656.572,762.52L-672.572,762.52Z" style="fill-rule:nonzero;"/>
                </g>
                <g transform="matrix(1,0,0,1,704.571,-666.52)">
                    <path d="M-672.572,810.52L-672.572,866.52L-616.572,866.52L-616.572,810.52L-672.572,810.52ZM-664.572,818.52L-624.572,818.52L-624.572,858.52L-664.572,858.52L-664.572,818.52Z" style="fill-rule:nonzero;"/>
                </g>
                <g transform="matrix(1,0,0,1,704.571,-666.52)">
                    <path d="M-656.572,714.52L-656.572,738.52L-632.572,738.52L-632.572,714.52L-656.572,714.52Z" style="fill-rule:nonzero;"/>
                </g>
                <g transform="matrix(1,0,0,1,704.571,-666.52)">
                    <path d="M-656.572,826.52L-656.572,850.52L-632.572,850.52L-632.572,826.52L-656.572,826.52Z" style="fill-rule:nonzero;"/>
                </g>
                <g transform="matrix(1,0,0,1,704.571,-666.52)">
                    <path d="M-640.572,786.52L-640.572,802.52L-632.572,802.52L-632.572,786.52L-640.572,786.52Z" style="fill-rule:nonzero;"/>
                </g>
                <g transform="matrix(1,0,0,1,704.571,-666.52)">
                    <path d="M-632.572,762.52L-632.572,778.52L-624.572,778.52L-624.572,770.52L-608.572,770.52L-608.572,762.52L-632.572,762.52Z" style="fill-rule:nonzero;"/>
                </g>
                <g transform="matrix(1,0,0,1,704.571,-666.52)">
                    <path d="M-600.572,698.52L-600.572,722.52L-608.572,722.52L-608.572,738.52L-600.572,738.52L-600.572,730.52L-592.572,730.52L-592.572,754.52L-600.572,754.52L-600.572,770.52L-608.572,770.52L-608.572,778.52L-624.572,778.52L-624.572,786.52L-608.572,786.52L-608.572,826.52L-584.572,826.52L-584.572,818.52L-576.572,818.52L-576.572,826.52L-568.572,826.52L-568.572,834.52L-552.572,834.52L-552.572,826.52L-520.572,826.52L-520.572,818.52L-560.572,818.52L-560.572,810.52L-592.572,810.52L-592.572,818.52L-600.572,818.52L-600.572,810.52L-592.572,810.52L-592.572,802.52L-600.572,802.52L-600.572,794.52L-592.572,794.52L-592.572,786.52L-600.572,786.52L-600.572,778.52L-584.572,778.52L-584.572,794.52L-592.572,794.52L-592.572,802.52L-576.572,802.52L-576.572,794.52L-560.572,794.52L-560.572,770.52L-568.572,770.52L-568.572,778.52L-576.572,778.52L-576.572,770.52L-592.572,770.52L-592.572,762.52L-584.572,762.52L-584.572,730.52L-576.572,730.52L-576.572,722.52L-592.572,722.52L-592.572,706.52L-584.572,706.52L-584.572,714.52L-576.572,714.52L-576.572,706.52L-568.572,706.52L-568.572,698.52L-600.572,698.52Z" style="fill-rule:nonzero;"/>
                </g>
                <rect x="80" y="128" width="8" height="8"/>
                <rect x="96" y="80" width="8" height="8"/>
                <g transform="matrix(1,0,0,1,704.571,-666.52)">
                    <path d="M-600.572,834.52L-600.572,850.52L-608.572,850.52L-608.572,866.52L-584.572,866.52L-584.572,858.52L-592.572,858.52L-592.572,842.52L-584.572,842.52L-584.572,834.52L-600.572,834.52Z" style="fill-rule:nonzero;"/>
                </g>
                <rect x="120" y="160" width="8" height="8"/>
                <rect x="120" y="184" width="8" height="8"/>
                <g transform="matrix(1,0,0,1,704.571,-666.52)">
                    <path d="M-576.572,730.52L-576.572,770.52L-568.572,770.52L-568.572,730.52L-576.572,730.52Z" style="fill-rule:nonzero;"/>
                </g>
                <g transform="matrix(1,0,0,1,704.571,-666.52)">
                    <path d="M-576.572,842.52L-576.572,850.52L-568.572,850.52L-568.572,858.52L-560.572,858.52L-560.572,842.52L-576.572,842.52Z" style="fill-rule:nonzero;"/>
                </g>
                <rect x="128" y="192" width="8" height="8"/>
                <g transform="matrix(1,0,0,1,704.571,-666.52)">
                    <path d="M-560.572,698.52L-560.572,754.52L-504.572,754.52L-504.572,698.52L-560.572,698.52ZM-552.572,706.52L-512.572,706.52L-512.572,746.52L-552.572,746.52L-552.572,706.52Z" style="fill-rule:nonzero;"/>
                </g>
                <rect x="144" y="192" width="8" height="8"/>
                <rect x="152" y="112" width="8" height="8"/>
                <g transform="matrix(1,0,0,1,704.571,-666.52)">
                    <path d="M-528.572,770.52L-528.572,778.52L-536.572,778.52L-536.572,786.52L-544.572,786.52L-544.572,794.52L-552.572,794.52L-552.572,810.52L-536.572,810.52L-536.572,794.52L-520.572,794.52L-520.572,786.52L-512.572,786.52L-512.572,778.52L-520.572,778.52L-520.572,770.52L-528.572,770.52Z" style="fill-rule:nonzero;"/>
                </g>
                <g transform="matrix(1,0,0,1,704.571,-666.52)">
                    <path d="M-552.572,834.52L-552.572,842.52L-544.572,842.52L-544.572,850.52L-552.572,850.52L-552.572,858.52L-544.572,858.52L-544.572,866.52L-536.572,866.52L-536.572,858.52L-520.572,858.52L-520.572,850.52L-528.572,850.52L-528.572,842.52L-536.572,842.52L-536.572,834.52L-552.572,834.52Z" style="fill-rule:nonzero;"/>
                </g>
                <g transform="matrix(1,0,0,1,704.571,-666.52)">
                    <path d="M-544.572,714.52L-544.572,738.52L-520.572,738.52L-520.572,714.52L-544.572,714.52Z" style="fill-rule:nonzero;"/>
                </g>
                <g transform="matrix(1,0,0,1,704.571,-666.52)">
                    <path d="M-544.572,762.52L-544.572,770.52L-528.572,770.52L-528.572,762.52L-544.572,762.52Z" style="fill-rule:nonzero;"/>
                </g>
                <rect x="176" y="136" width="8" height="8"/>
                <rect x="176" y="168" width="8" height="8"/>
                <rect x="184" y="128" width="8" height="8"/>
                <rect x="184" y="144" width="8" height="8"/>
                <g transform="matrix(1,0,0,1,704.571,-666.52)">
                    <path d="M-520.572,826.52L-520.572,834.52L-504.572,834.52L-504.572,826.52L-520.572,826.52Z" style="fill-rule:nonzero;"/>
                </g>
                <g transform="matrix(1,0,0,1,704.571,-666.52)">
                    <path d="M-520.572,842.52L-520.572,850.52L-504.572,850.52L-504.572,842.52L-520.572,842.52Z" style="fill-rule:nonzero;"/>
                </g>
                <rect x="184" y="192" width="8" height="8"/>
                <rect x="192" y="136" width="8" height="8"/>
            </g>
        </g>
        <g id="Clamp">
            <g opacity="0.2">
                <path d="M40,12L24,12L24,17C24,18.7 25.3,20 27,20L37,20C38.7,20 40,18.7 40,17L40,12Z" style="fill:rgb(35,31,32);fill-rule:nonzero;"/>
            </g>
            <g>
                <path d="M40,10L24,10L24,15C24,16.7 25.3,18 27,18L37,18C38.7,18 40,16.7 40,15L40,10Z" style="fill:rgb(79,93,115);fill-rule:nonzero;"/>
            </g>
        </g>
    </g>
    <defs>
        <linearGradient id="_Linear1" x1="0" y1="0" x2="1" y2="0" gradientUnits="userSpaceOnUse" gradientTransform="matrix(0.368027,-77.057,77.057,0.368027,43.1798,80.6549)"><stop offset="0" style="stop-color:rgb(0,73,150);stop-opacity:1"/><stop offset="1" style="stop-color:rgb(109,180,255);stop-opacity:1"/></linearGradient>
    </defs>
</svg>
