<?xml version="1.0" encoding="UTF-8" standalone="no"?>
<svg
   xmlns:dc="http://purl.org/dc/elements/1.1/"
   xmlns:cc="http://creativecommons.org/ns#"
   xmlns:rdf="http://www.w3.org/1999/02/22-rdf-syntax-ns#"
   xmlns:svg="http://www.w3.org/2000/svg"
   xmlns="http://www.w3.org/2000/svg"
   xmlns:xlink="http://www.w3.org/1999/xlink"
   xmlns:sodipodi="http://sodipodi.sourceforge.net/DTD/sodipodi-0.dtd"
   xmlns:inkscape="http://www.inkscape.org/namespaces/inkscape"
   version="1.1"
   id="Layer_1"
   x="0px"
   y="0px"
   width="86px"
   height="86px"
   viewBox="0 0 86 86"
   style="enable-background:new 0 0 86 86;"
   xml:space="preserve"
   sodipodi:docname="harbour-qrclip.svg"
   inkscape:export-filename="harbour-qrclip.png"
   inkscape:export-xdpi="96"
   inkscape:export-ydpi="96"
   inkscape:version="0.92.4 (unknown)">
  <metadata>
    <rdf:RDF>
      <cc:Work
          rdf:about="">
        <dc:format>image/svg+xml</dc:format>
        <dc:type
            rdf:resource="http://purl.org/dc/dcmitype/StillImage"/>
        <dc:title/>
      </cc:Work>
    </rdf:RDF>
  </metadata>
  <defs>
    <linearGradient
        inkscape:collect="always"
        xlink:href="#clipboard_gradient"
        id="linearGradient918"
        x1="3904.7527"
        y1="711.64697"
        x2="3923.0928"
        y2="7310.6309"
        gradientUnits="userSpaceOnUse"/>
    <linearGradient
        gradientTransform="translate(655,135)"
        y2="-134.7"
        x2="-612"
        y1="-49.299999"
        x1="-612"
        gradientUnits="userSpaceOnUse"
        id="SVGID_1_-5">
      <stop
          id="stop2251"
          style="stop-color:#CFA45B"
          offset="0"/>
      <stop
          id="stop2253"
          style="stop-color:#EBE18D"
          offset="1"/>
    </linearGradient>
    <linearGradient
        id="background_gradient"
        gradientUnits="userSpaceOnUse"
        x1="1.0321"
        y1="85.777901"
        x2="85.793198"
        y2="1.0167"
        gradientTransform="matrix(0.70096018,0,0,0.70096018,12.569318,20.580211)"
        xlink:href="#SVGID_1_-5">
      <stop
          offset="0"
          style="stop-color:#F79C00"
          id="stop3-3"/>
      <stop
          offset="1"
          style="stop-color:#F3DF3A"
          id="stop5-6"/>
    </linearGradient>
  </defs>
  <path
      inkscape:connector-curvature="0"
      style="fill:url(#background_gradient);fill-opacity:1;stroke-width:0.7025761"
      d="M 73,80.000234 C 73,80.55246 72.552459,81 72.000234,81 H 13.999761 C 13.447537,81 13,80.55246 13,80.000234 V 21.999765 C 13,21.447541 13.447537,21 13.999761,21 h 57.99977 c 0.552225,0 0.999766,0.447541 0.999766,0.999765 v 58.000469 z"/>
  <g>
    <rect
        style="opacity:0;fill:#FFFFFF;"
        width="86"
        height="86"/>
    <g>
      <linearGradient
          id="clipboard_gradient"
          gradientUnits="userSpaceOnUse"
          x1="43"
          y1="64.3986"
          x2="43"
          y2="9.9294"
          gradientTransform="translate(18.584746,88.915254)">
        <stop
            offset="0"
            style="stop-color:#534054"
            id="stop10"/>
        <stop
            offset="1"
            style="stop-color:#7A6E6F"
            id="stop12"/>
      </linearGradient>
    </g>
  </g>
  <g
      transform="matrix(0.13565138,0,0,-0.13123077,-11.261027,95.492695)"
      inkscape:label="ink_ext_XXXXXX">
    <g
        transform="scale(0.1)">
      <path
          inkscape:connector-curvature="0"
          style="fill:url(#linearGradient918);fill-opacity:1;fill-rule:evenodd;stroke:none"
          d="m 2058.44,5404.3645 3873.7023,0 L 5941.64,1386.62 H 2058.44 Z M 3435.15,6136.43 c -258.85,0 -470.68,211.75 -470.68,470.67 h -970.55 c -275.18,0 -500.31,-225.14 -500.31,-500.31 V 1223.67 c 0,-275.17 225.13,-500.311 500.31,-500.311 h 4012.23 c 275.18,0 500.31,225.141 500.31,500.311 v 4883.12 c 0,275.17 -225.13,500.31 -500.31,500.31 H 5035.6 c 0,-258.92 -211.76,-470.67 -470.67,-470.67 z m 564.89,747.5 c 50.8,0 92.51,39.01 96.71,88.78 -4.2,49.77 -45.91,88.79 -96.71,88.79 -50.8,0 -92.51,-39.02 -96.71,-88.79 4.2,-49.77 45.91,-88.78 96.71,-88.78 z m -295.66,27.02 v 132.2 c 0,128.5 105.06,233.55 233.48,233.55 h 124.36 c 128.41,0 233.46,-105.05 233.46,-233.55 v -16.67 -107.53 -0.14 -0.15 -0.13 -0.14 -0.14 -0.13 -7.17 h 269.25 c 167.09,0 303.86,-136.76 303.86,-303.85 0,-2.76 -0.15,-5.52 -0.15,-8.27 0,-2.9 0.15,-5.66 0.15,-8.42 v 0 c 0,-167.23 -136.77,-303.98 -303.86,-303.98 H 3435.15 c -167.1,0 -303.86,136.75 -303.86,303.98 v 0 c 0,2.76 0,5.52 0.14,8.42 -0.14,2.75 -0.14,5.51 -0.14,8.27 0,167.09 136.76,303.85 303.86,303.85 h 269.23 v 0"
          sodipodi:nodetypes="cccccscsssssssscssscscscsssscccccccccsssccsscccsscc"/>
    </g>
  </g>
  <g
      transform="matrix(0.28571289,0,0,0.28571401,9.8574219,17.857198)"
      style="opacity:0.66">
    <g
        style="fill:#000000">
      <path
          d="m -672.57227,698.51953 v 8 8 8 8 8 8 8 h 8 8 8 8 8 8 8 v -8 -8 -8 -8 -8 -8 -8 h -8 -8 -8 -8 -8 -8 z m 8,8 h 8 8 8 8 8 v 8 8 8 8 8 h -8 -8 -8 -8 -8 v -8 -8 -8 -8 z"
          transform="translate(704.57145,-666.51969)"
          inkscape:connector-curvature="0"/>
      <path
          d="m -672.57227,762.51953 v 8 h 8 v 8 h 8 v 8 h -8 v 8 8 h 8 8 v -8 -8 h 8 v -8 h -8 v -8 h -8 v -8 h -8 z"
   transform="translate(704.57145,-666.51969)"
   inkscape:connector-curvature="0"/>
      <path
          d="m -672.57227,810.51953 v 8 8 8 8 8 8 8 h 8 8 8 8 8 8 8 v -8 -8 -8 -8 -8 -8 -8 h -8 -8 -8 -8 -8 -8 z m 8,8 h 8 8 8 8 8 v 8 8 8 8 8 h -8 -8 -8 -8 -8 v -8 -8 -8 -8 z"
          transform="translate(704.57145,-666.51969)"
          inkscape:connector-curvature="0"/>
      <path
          d="m -656.57227,714.51953 v 8 8 8 h 8 8 8 v -8 -8 -8 h -8 -8 z"
          transform="translate(704.57145,-666.51969)"
          inkscape:connector-curvature="0"/>
      <path
          d="m -656.57227,826.51953 v 8 8 8 h 8 8 8 v -8 -8 -8 h -8 -8 z"
          transform="translate(704.57145,-666.51969)"
          inkscape:connector-curvature="0"/>
      <path
          d="m -640.57227,786.51953 v 8 8 h 8 v -8 -8 z"
          transform="translate(704.57145,-666.51969)"
          inkscape:connector-curvature="0"/>
      <path
          d="m -632.57227,762.51953 v 8 8 h 8 v -8 h 8 8 v -8 h -8 -8 z"
          transform="translate(704.57145,-666.51969)"
          inkscape:connector-curvature="0"/>
      <path
          d="m -600.57227,698.51953 v 8 8 8 h -8 v 8 8 h 8 v -8 h 8 v 8 8 8 h -8 v 8 8 h -8 v 8 h -8 -8 v 8 h 8 8 v 8 8 8 8 8 h 8 8 8 v -8 h 8 v 8 h 8 v 8 h 8 8 v -8 h 8 8 8 8 v -8 h -8 -8 -8 -8 -8 v -8 h -8 -8 -8 -8 v 8 h -8 v -8 h 8 v -8 h -8 v -8 h 8 v -8 h -8 v -8 h 8 8 v 8 8 h -8 v 8 h 8 8 v -8 h 8 8 v -8 -8 -8 h -8 v 8 h -8 v -8 h -8 -8 v -8 h 8 v -8 -8 -8 -8 h 8 v -8 h -8 -8 v -8 -8 h 8 v 8 h 8 v -8 h 8 v -8 h -8 -8 -8 z"
          transform="translate(704.57145,-666.51969)"
          inkscape:connector-curvature="0"/>
      <rect
          height="8"
          width="8"
          y="128"
          x="80"/>
      <rect
          height="8"
          width="8"
          y="80"
          x="96"/>
      <path
          d="m -600.57227,834.51953 v 8 8 h -8 v 8 8 h 8 8 8 v -8 h -8 v -8 -8 h 8 v -8 h -8 z"
          transform="translate(704.57145,-666.51969)"
          inkscape:connector-curvature="0"/>
      <rect
          height="8"
          width="8"
          y="160"
          x="120"/>
      <rect
          height="8"
          width="8"
          y="184"
          x="120"/>
      <path
          d="m -576.57227,730.51953 v 8 8 8 8 8 h 8 v -8 -8 -8 -8 -8 z"
          transform="translate(704.57145,-666.51969)"
          inkscape:connector-curvature="0"/>
      <path
          d="m -576.57227,842.51953 v 8 h 8 v 8 h 8 v -8 -8 h -8 z"
          transform="translate(704.57145,-666.51969)"
          inkscape:connector-curvature="0"/>
      <rect
          height="8"
          width="8"
          y="192"
          x="128"/>
      <path
          d="m -560.57227,698.51953 v 8 8 8 8 8 8 8 h 8 8 8 8 8 8 8 v -8 -8 -8 -8 -8 -8 -8 h -8 -8 -8 -8 -8 -8 z m 8,8 h 8 8 8 8 8 v 8 8 8 8 8 h -8 -8 -8 -8 -8 v -8 -8 -8 -8 z"
          transform="translate(704.57145,-666.51969)"
          inkscape:connector-curvature="0"/>
      <rect
          height="8"
          width="8"
          y="192"
          x="144"/>
      <rect
          height="8"
          width="8"
          y="112"
          x="152"/>
      <path
          d="m -528.57227,770.51953 v 8 h -8 v 8 h -8 v 8 h -8 v 8 8 h 8 8 v -8 -8 h 8 8 v -8 h 8 v -8 h -8 v -8 z"
          transform="translate(704.57145,-666.51969)"
          inkscape:connector-curvature="0"/>
      <path
          d="m -552.57227,834.51953 v 8 h 8 v 8 h -8 v 8 h 8 v 8 h 8 v -8 h 8 8 v -8 h -8 v -8 h -8 v -8 h -8 z"
          transform="translate(704.57145,-666.51969)"
          inkscape:connector-curvature="0"/>
      <path
          d="m -544.57227,714.51953 v 8 8 8 h 8 8 8 v -8 -8 -8 h -8 -8 z"
          transform="translate(704.57145,-666.51969)"
          inkscape:connector-curvature="0"/>
      <path
          d="m -544.57227,762.51953 v 8 h 8 8 v -8 h -8 z"
          transform="translate(704.57145,-666.51969)"
          inkscape:connector-curvature="0"/>
      <rect
          height="8"
          width="8"
          y="136"
          x="176"/>
      <rect
          height="8"
          width="8"
          y="168"
          x="176"/>
      <rect
          height="8"
          width="8"
          y="128"
          x="184"/>
      <rect
          height="8"
          width="8"
          y="144"
          x="184"/>
      <path
          d="m -520.57227,826.51953 v 8 h 8 8 v -8 h -8 z"
          transform="translate(704.57145,-666.51969)"
          inkscape:connector-curvature="0"/>
      <path
          d="m -520.57227,842.51953 v 8 h 8 8 v -8 h -8 z"
          transform="translate(704.57145,-666.51969)"
          inkscape:connector-curvature="0"/>
      <rect
          height="8"
          width="8"
          y="192"
          x="184"/>
      <rect
          height="8"
          width="8"
          y="136"
          x="192"/>
    </g>
  </g>
</svg>
